<svg width="24" height="24" viewBox="0 0 24 24" fill="none" xmlns="http://www.w3.org/2000/svg">
<path fill-rule="evenodd" clip-rule="evenodd" d="M3.37346 3.66349C3.40792 3.48508 3.55979 3.35153 3.74402 3.33762L8.1964 3.00154C8.62934 2.96886 9.01283 3.2743 9.07002 3.69735L9.59953 7.61446C9.63307 7.86259 9.54713 8.11192 9.36704 8.28892L7.62458 10.0015C7.3051 10.3155 7.3051 10.8246 7.62458 11.1386L13.0352 16.4565C13.3547 16.7705 13.8727 16.7705 14.1922 16.4565L15.9578 14.7211C16.1246 14.5571 16.3554 14.472 16.5908 14.4874L20.2372 14.7268C20.6702 14.7552 21.0052 15.1108 21.0008 15.5372L20.952 20.2473C20.95 20.4393 20.8101 20.6031 20.6181 20.6384C15.8265 21.5183 10.6765 20.9404 6.87191 17.201C3.06138 13.4559 2.46319 8.37538 3.37346 3.66349Z" stroke="black" stroke-width="2" stroke-linecap="round" stroke-linejoin="round"/>
</svg>
